<svg xmlns="http://www.w3.org/2000/svg" id="Livello_2" data-name="Livello 2" viewBox="0 0 280 50" fill="white"><defs><style>.cls-1{font-size:37.66px;font-family:BerlinSansFBDemi-Bold, Berlin Sans FB Demi;font-weight:700;}</style></defs><path d="M354,465H343.3L307,501.31l-4.94-4.94-1.63-4.88a1.73,1.73,0,0,0-1.87-1.19,1.76,1.76,0,0,0-1.54,1.61l-.69,9,7.24,7.24L291,520.68h-3.29a2.76,2.76,0,0,0-2.75,2.76v7.81a2.75,2.75,0,0,0,2.75,2.75h7.81a2.76,2.76,0,0,0,2.76-2.75v-4.14L310.42,515l7.29,7.29L326,520.9a1.74,1.74,0,0,0,1.47-1.66,1.76,1.76,0,0,0-1.33-1.77l-4-1-4.9-4.9L354,475.28Z" transform="translate(-285 -465)"/><text class="cls-1" transform="translate(73 32.39) scale(1.21 1)">SWORD</text><text class="cls-1" transform="translate(72 60.39) scale(1.21 1)">LEAGUE</text><!-- Code injected by live-server -->
</svg>