<svg id="Livello_1" data-name="Livello 1" xmlns="http://www.w3.org/2000/svg" viewBox="0 0 596 596"><defs><style>.cls-1{fill:#fff;}.cls-2{fill:none;stroke:#fff;stroke-miterlimit:10;stroke-width:14px;}</style></defs><path class="cls-1" d="M509.25,90.87H444.39L224.35,311,194.4,281l-9.88-29.59a10.49,10.49,0,0,0-11.33-7.21,10.68,10.68,0,0,0-9.34,9.76l-4.18,54.56,43.89,43.88-76.2,76H107.42a16.72,16.72,0,0,0-16.67,16.73v47.34a16.67,16.67,0,0,0,16.67,16.67h47.34a16.72,16.72,0,0,0,16.73-16.67V467.37L245.08,394l44.19,44.19,50.25-8.43a10.54,10.54,0,0,0,8.91-10.06,10.67,10.67,0,0,0-8.06-10.73l-24.25-6.06-29.7-29.7,222.83-220Z" transform="translate(-2 -2)"/><circle class="cls-2" cx="298" cy="298" r="291"/></svg>